<svg width="200" height="104" viewBox="0 0 200 104" fill="none" xmlns="http://www.w3.org/2000/svg">
<path d="M2 0.454544H17.7273L28.5455 26.8182H29.0909L39.9091 0.454544H55.6364V47H43.2727V20.0909H42.9091L32.5455 46.6364H25.0909L14.7273 19.9091H14.3636V47H2V0.454544ZM74.2614 0.454544V47H61.625V0.454544H74.2614ZM120.523 0.454544V47H109.977L93.1591 22.5455H92.8864V47H80.25V0.454544H90.9773L107.523 24.8182H107.886V0.454544H120.523ZM126.5 47V0.454544H139.136V18.6364H155.864V0.454544H168.5V47H155.864V28.8182H139.136V47H126.5ZM0.727273 66.6364V56.4545H41.1818V66.6364H27.1818V103H14.7273V66.6364H0.727273ZM45.9375 103V56.4545H66.0284C69.483 56.4545 72.5057 57.0833 75.0966 58.3409C77.6875 59.5985 79.7027 61.4091 81.142 63.7727C82.5814 66.1364 83.3011 68.9697 83.3011 72.2727C83.3011 75.6061 82.5587 78.4167 81.0739 80.7045C79.6042 82.9924 77.536 84.7197 74.8693 85.8864C72.2178 87.053 69.1193 87.6364 65.5739 87.6364H53.5739V77.8182H63.0284C64.5133 77.8182 65.7784 77.6364 66.8239 77.2727C67.8845 76.8939 68.6951 76.2955 69.2557 75.4773C69.8314 74.6591 70.1193 73.5909 70.1193 72.2727C70.1193 70.9394 69.8314 69.8561 69.2557 69.0227C68.6951 68.1742 67.8845 67.553 66.8239 67.1591C65.7784 66.75 64.5133 66.5455 63.0284 66.5455H58.5739V103H45.9375ZM73.2102 81.6364L84.8466 103H71.1193L59.7557 81.6364H73.2102ZM100.778 103H87.142L102.506 56.4545H119.778L135.142 103H121.506L111.324 69.2727H110.96L100.778 103ZM98.233 84.6364H123.869V94.0909H98.233V84.6364ZM179.898 56.4545V103H169.352L152.534 78.5455H152.261V103H139.625V56.4545H150.352L166.898 80.8182H167.261V56.4545H179.898ZM192.875 103.727C191.117 103.727 189.61 103.114 188.352 101.886C187.11 100.644 186.496 99.1364 186.511 97.3636C186.496 95.6364 187.11 94.1591 188.352 92.9318C189.61 91.7045 191.117 91.0909 192.875 91.0909C194.542 91.0909 196.011 91.7045 197.284 92.9318C198.572 94.1591 199.223 95.6364 199.239 97.3636C199.223 98.5455 198.913 99.6212 198.307 100.591C197.716 101.545 196.943 102.311 195.989 102.886C195.034 103.447 193.996 103.727 192.875 103.727Z" fill="#C62121"/>
</svg>
