<?xml version="1.0" encoding="utf-8"?>
<!-- Generator: Adobe Illustrator 27.5.0, SVG Export Plug-In . SVG Version: 6.00 Build 0)  -->
<svg version="1.1" id="Layer_1" xmlns="http://www.w3.org/2000/svg" xmlns:xlink="http://www.w3.org/1999/xlink" x="0px" y="0px"
	 viewBox="0 0 36 36" style="enable-background:new 0 0 36 36;" xml:space="preserve">
<style type="text/css">
	.st0{fill:#E87E6D;}
</style>
<path class="st0" d="M31,34.3c1.8,0,3.3-1.5,3.3-3.3V5c0-1.8-1.5-3.3-3.3-3.3H5C3.2,1.7,1.7,3.2,1.7,5v26c0,1.8,1.5,3.3,3.3,3.3
	C5,34.3,31,34.3,31,34.3z M31,36H5c-2.8,0-5-2.2-5-5V5c0-2.8,2.2-5,5-5h26c2.8,0,5,2.2,5,5v26C36,33.8,33.8,36,31,36z"/>
<g>
	<path class="st0" d="M25.3,29.1c-0.9,0-1.7-0.3-2.3-1l-5-5l-5,5c-1.3,1.3-3.3,1.3-4.6,0c-0.6-0.6-1-1.4-1-2.3c0-0.9,0.3-1.7,1-2.3
		l6.6-6.6l-3.7-3.7H8.6c-0.5,0-0.9-0.3-1-0.7l-1-3.1C6.4,9,6.5,8.6,6.8,8.3l1-1C8.1,7,8.5,6.9,8.9,7l3.1,1c0.4,0.1,0.7,0.5,0.7,1
		v2.7L16,15c-0.1-0.4-0.1-0.8-0.1-1.3c0-1.8,0.7-3.5,2-4.8c1.3-1.3,3-2,4.8-2c1.2,0,2.4,0.3,3.4,0.9c0.3,0.2,0.5,0.4,0.5,0.8
		c0,0.3-0.1,0.6-0.3,0.9l-2.8,2.8c-0.2,0.2-0.3,0.3-0.4,0.4c0.1,0.1,0.3,0.3,0.4,0.4l0.2,0.2c0.2,0.2,0.3,0.3,0.4,0.4
		c0.1-0.1,0.3-0.3,0.4-0.4l2.6-2.6c0.2-0.2,0.6-0.4,0.9-0.3c0.3,0.1,0.6,0.3,0.8,0.6c0.3,0.8,0.5,1.7,0.5,2.6c0,1.8-0.7,3.5-2,4.8
		c-0.9,0.9-1.9,1.5-3,1.8l3.2,3.2c0.6,0.6,1,1.4,1,2.3c0,0.9-0.3,1.7-1,2.3C27,28.7,26.2,29.1,25.3,29.1z M17.2,17.6L9.8,25
		c-0.2,0.2-0.3,0.5-0.3,0.8s0.1,0.6,0.3,0.8c0.5,0.5,1.2,0.5,1.7,0l7.5-7.5c0,0,0,0,0,0l0.3-0.3c0.1-0.1,0.2-0.2,0.3-0.2
		c0.1,0,0.1-0.1,0.2-0.1c0.3-0.1,0.5-0.2,0.8-0.2c0,0,0.1,0,0.1,0c0.3,0,0.5,0,0.8,0.1c0.2,0,0.3,0.1,0.5,0.1c0,0,0,0,0,0
		c0,0,0,0,0,0c0.3,0,0.5,0.1,0.8,0.1c2.6,0,4.7-2.1,4.7-4.7c0,0,0-0.1,0-0.1l-1.2,1.2c-0.5,0.5-0.8,0.8-1.3,1
		c-0.4,0.1-0.9,0.1-1.3,0c-0.5-0.2-0.8-0.5-1.3-1l-0.2-0.2c-0.5-0.5-0.8-0.8-1-1.3c-0.1-0.4-0.1-0.9,0-1.3c0.2-0.5,0.5-0.8,1-1.3
		l1.6-1.6c-0.3-0.1-0.7-0.1-1-0.1c-2.6,0-4.7,2.1-4.7,4.7c0,0.3,0,0.6,0.1,0.9l0,0c0.1,0.6,0.2,0.9,0.1,1.2c0,0.3-0.1,0.5-0.2,0.8
		c-0.1,0.3-0.3,0.5-0.7,0.8L17.2,17.6C17.2,17.6,17.2,17.6,17.2,17.6C17.2,17.6,17.2,17.6,17.2,17.6z M19.5,21.6l5,5
		c0.5,0.5,1.2,0.5,1.7,0c0.5-0.5,0.5-1.2,0-1.7l-4.5-4.5c-0.1,0-0.2,0-0.3-0.1c-0.3-0.1-0.5-0.1-0.6-0.1c-0.1,0.1-0.2,0.2-0.3,0.3
		L19.5,21.6z M9.3,11.1h1.3V9.8L8.9,9.2L8.7,9.3L9.3,11.1z"/>
</g>
</svg>
